<svg xmlns="http://www.w3.org/2000/svg" xmlns:xlink="http://www.w3.org/1999/xlink" viewBox="0 0 251.06 74.99"><defs><style>.a{fill:url(#a);}.b{fill:url(#b);}.c{fill:url(#c);}.d{fill:url(#d);}</style><linearGradient id="a" x1="78.01" y1="81" x2="78.01" y2="31.01" gradientTransform="matrix(1, 0, 0, -1, 0, 88)" gradientUnits="userSpaceOnUse"><stop offset="0" stop-color="#2bdbdc"/><stop offset="1" stop-color="#0067f4"/></linearGradient><linearGradient id="b" x1="53" y1="56.01" x2="53" y2="6.01" xlink:href="#a"/><linearGradient id="c" x1="65.5" y1="31.01" x2="65.5" y2="6.01" xlink:href="#a"/><linearGradient id="d" x1="40.5" y1="56.01" x2="40.5" y2="31.01" xlink:href="#a"/></defs><title>ayro-logo</title><path class="a" d="M78,57V38.66A6.67,6.67,0,0,0,71.33,32H53A25,25,0,1,1,78,57Z" transform="translate(-28 -7)"/><path class="b" d="M71.33,32H34.67A6.66,6.66,0,0,0,28,38.66V75.32A6.66,6.66,0,0,0,34.67,82H71.33A6.66,6.66,0,0,0,78,75.32V38.66A6.66,6.66,0,0,0,71.33,32Z" transform="translate(-28 -7)"/><path class="c" d="M53,82A25,25,0,0,1,78,57V75.32A6.66,6.66,0,0,1,71.33,82Z" transform="translate(-28 -7)"/><path class="d" d="M28,57V38.66A6.66,6.66,0,0,1,34.67,32H53A25,25,0,0,1,28,57Z" transform="translate(-28 -7)"/><path d="M135,68h8.69l-12.2-33.7H122L109.77,68h8.59l2-6h12.57Zm-4.13-12.29h-8.3l4.12-12.34ZM159.7,58l-6.19-16.75h-9.17l10.9,25.87-6.15,13.63h8.84l16.8-39.5h-8.88Zm26.2-2.4c0-4.61,2.26-6,6.15-6h2.25V40.93a10,10,0,0,0-8.4,4.75V41.22h-8.21V68h8.21Zm38.53-1c0-8.5-6-13.78-13.92-13.78s-13.92,5.28-13.92,13.78,6,13.78,13.83,13.78S224.43,63.1,224.43,54.61Zm-19.48,0c0-4.56,2.59-6.67,5.56-6.67s5.57,2.11,5.57,6.67-2.73,6.67-5.66,6.67S204.95,59.12,204.95,54.61Zm37.26,1.06c0,8.69,5.66,12.67,12.58,12.67s12.62-4,12.62-12.67V34.54H263V55.71c0,6.14-3.26,8.78-8.21,8.78s-8.25-2.64-8.25-8.78V34.54h-4.37ZM274.7,68h4.36V34.54H274.7Z" transform="translate(-28 -7)"/></svg>