<svg xmlns="http://www.w3.org/2000/svg" viewBox="0 0 205.27 43.35"><defs><style>.a{fill:#2c2939;}.b{fill:#262626;}.c{fill:#fff;}.d{fill:#999;}</style></defs><title>graygrids-logo</title><path class="a" d="M88.9,56.5H85.5V38h6.9a6.44,6.44,0,0,1,2.4.5,8,8,0,0,1,1.9,1.3,6.15,6.15,0,0,1,1.2,1.9,5.51,5.51,0,0,1,.2,3.8,9.38,9.38,0,0,1-.6,1.5A5.37,5.37,0,0,1,95,49.2c.9,1.2,1.8,2.4,2.7,3.7l2.7,3.6H97.8a1.27,1.27,0,0,1-.6-.1,3,3,0,0,1-.8-.4,5.55,5.55,0,0,1-.8-.6,3.92,3.92,0,0,1-.8-1l-3.4-4.5H88.9v6.6Zm3.7-10.1a2.92,2.92,0,0,0,.9-.2,1.56,1.56,0,0,0,.8-.6,2.18,2.18,0,0,0,.5-.8,2.92,2.92,0,0,0,.2-.9,3.55,3.55,0,0,0-.2-1,2.18,2.18,0,0,0-.5-.8,5.55,5.55,0,0,0-.8-.6,2.92,2.92,0,0,0-.9-.2H88.9v5Z" transform="translate(-12.83 -25.83)"/><path class="a" d="M109.5,38h3.1l8.1,18.5h-2.1a2,2,0,0,1-1.3-.4,2.19,2.19,0,0,1-.9-1l-1.1-2.5h-8.4l-1.1,2.5a2.09,2.09,0,0,1-.4.6,1.76,1.76,0,0,1-.5.4l-.6.3a1.7,1.7,0,0,1-.7.1h-2.1Zm-1.2,11.2h5.4l-2.4-5.6a1.85,1.85,0,0,1-.2-.7,4.33,4.33,0,0,0-.1-.5.9.9,0,0,1-.1.5,1.85,1.85,0,0,1-.2.7Z" transform="translate(-12.83 -25.83)"/><path class="a" d="M130.3,56.5h-3.4V48.7a1.45,1.45,0,0,0-.2-.7,1.79,1.79,0,0,0-.5-.7l-6.8-9.2H122a4,4,0,0,1,1.5.3,3.46,3.46,0,0,1,1.1,1l3.6,4.9a.76.76,0,0,1,.2.5.44.44,0,0,0,.1.3.37.37,0,0,1,.1-.3,1.33,1.33,0,0,1,.3-.5l3.6-4.9a2.66,2.66,0,0,1,1.1-1,4,4,0,0,1,1.5-.3h2.6l-6.8,9.2c-.1.1-.2.3-.3.4s-.1.2-.2.3a.37.37,0,0,0-.1.3v8.2Z" transform="translate(-12.83 -25.83)"/><path class="a" d="M156.4,47.6v7.1a7.1,7.1,0,0,1-1.4,1,5.23,5.23,0,0,1-1.6.6,5.66,5.66,0,0,1-1.8.3,12.1,12.1,0,0,1-1.9.1A9.37,9.37,0,0,1,146,56a10.49,10.49,0,0,1-3-2,8.32,8.32,0,0,1-2-3,9.37,9.37,0,0,1-.7-3.7,11.56,11.56,0,0,1,.7-3.7,12.09,12.09,0,0,1,2-3,9.85,9.85,0,0,1,3-2,9.26,9.26,0,0,1,7.3,0,11.73,11.73,0,0,1,3,1.9l-.1.1a1.76,1.76,0,0,1-.5.4,1.27,1.27,0,0,1-.6.1,1.14,1.14,0,0,1-.8-.3,6.81,6.81,0,0,0-2.1-1,10,10,0,0,0-2.4-.4,7.61,7.61,0,0,0-2.1.3,6.39,6.39,0,0,0-1.9.8,9.55,9.55,0,0,0-1.6,1.2,6.1,6.1,0,0,0-1.2,1.6,10.84,10.84,0,0,0-.8,1.9,7.5,7.5,0,0,0,0,4.2,7.52,7.52,0,0,0,2.1,3.4,6.1,6.1,0,0,0,1.6,1.2,10.84,10.84,0,0,0,1.9.8,7.61,7.61,0,0,0,2.1.3,7.46,7.46,0,0,0,2.6-.4,8.56,8.56,0,0,0,2.4-1.1V49.2h-1.6a1.27,1.27,0,0,1-.6-.1,1,1,0,0,1-.5-.4,2.19,2.19,0,0,1-.3-.5,1.27,1.27,0,0,1-.1-.6v-.1Z" transform="translate(-12.83 -25.83)"/><path class="a" d="M163.5,56.5h-1.6V38h6.6a5.22,5.22,0,0,1,2.1.4,6.19,6.19,0,0,1,1.7,1.1,4.19,4.19,0,0,1,1.1,1.6,4.48,4.48,0,0,1,.4,2,5.23,5.23,0,0,1-.3,1.8,5.07,5.07,0,0,1-.9,1.6,5.26,5.26,0,0,1-1.4,1.2,4.78,4.78,0,0,1-1.8.6l6.2,8.1h-.8a2.12,2.12,0,0,1-2-1l-5.4-7.2h-3.8v8.3Zm0-16.9v7.1h4.9a3.19,3.19,0,0,0,1.4-.3,2.84,2.84,0,0,0,1.1-.8,4.44,4.44,0,0,0,.8-1.1,3.19,3.19,0,0,0,.3-1.4,3.53,3.53,0,0,0-.3-1.4,3.9,3.9,0,0,0-1.9-1.9,3.19,3.19,0,0,0-1.4-.3h-4.9Z" transform="translate(-12.83 -25.83)"/><path class="a" d="M181.2,56.5h-1.5V38h1.5Z" transform="translate(-12.83 -25.83)"/><path class="a" d="M187.6,56.5V38h6.8a9,9,0,0,1,4.7,1.3,8.72,8.72,0,0,1,3.3,3.3,9.47,9.47,0,0,1,1.3,4.7,9,9,0,0,1-1.3,4.7,13.3,13.3,0,0,1-1.4,1.9,9.91,9.91,0,0,1-4.1,2.4,10.07,10.07,0,0,1-2.5.3h-6.8Zm6.8-1.7a8,8,0,0,0,3-.6,7.76,7.76,0,0,0,2.4-1.6,6.33,6.33,0,0,0,1.6-2.4,7.31,7.31,0,0,0,.6-3,8,8,0,0,0-.6-3,7.35,7.35,0,0,0-4-4,7.65,7.65,0,0,0-3-.6h-5.2V54.8Z" transform="translate(-12.83 -25.83)"/><path class="a" d="M215.3,40.4a2.18,2.18,0,0,1-.5-.4,3.7,3.7,0,0,0-1.1-.5,2.77,2.77,0,0,0-.9-.1,3.19,3.19,0,0,0-1.4.3,7.46,7.46,0,0,0-1.2.7,3.92,3.92,0,0,0-.8,1,2.66,2.66,0,0,0-.3,1.2,5,5,0,0,0,.2,1.2,2.41,2.41,0,0,0,.6.8,7.46,7.46,0,0,0,1.2.7c.5.2,1.1.4,1.8.7.4.1.7.3,1.1.4a3.55,3.55,0,0,1,.9.4,5.94,5.94,0,0,1,.8.4,1.79,1.79,0,0,1,.7.5,3.71,3.71,0,0,1,1.3,1.7,5.7,5.7,0,0,1,.4,2.2,5.45,5.45,0,0,1-.5,2.2,4,4,0,0,1-1.3,1.6,5,5,0,0,1-1.9,1,9.26,9.26,0,0,1-2.3.4,6.36,6.36,0,0,1-4.1-1.4l-.8-.8a3,3,0,0,1-.5-.7l.2-.1a1.08,1.08,0,0,1,.8-.2,1.27,1.27,0,0,1,.6.1,2.19,2.19,0,0,1,.5.3,8.75,8.75,0,0,0,1,.8,3,3,0,0,0,.8.4,1.7,1.7,0,0,0,.7.1h.7a4.68,4.68,0,0,0,1.6-.2,3.51,3.51,0,0,0,1.4-.6,3.46,3.46,0,0,0,1-1.1,3.17,3.17,0,0,0,.4-1.6,4.67,4.67,0,0,0-.3-1.7,2.19,2.19,0,0,0-.9-1,5.39,5.39,0,0,0-1.3-.7c-.5-.2-1-.4-1.6-.6s-1.4-.6-2-.8a3.77,3.77,0,0,1-1.5-.9,3.25,3.25,0,0,1-1-1.3,4.33,4.33,0,0,1-.4-1.9,4.55,4.55,0,0,1,.5-2,4.43,4.43,0,0,1,1.2-1.5,9.5,9.5,0,0,1,1.7-1,6.28,6.28,0,0,1,1.9-.3,7.72,7.72,0,0,1,1.5.2,6.12,6.12,0,0,1,1.2.5,8.65,8.65,0,0,1,1,.7,6,6,0,0,1,.8.8l-.4.3c-.1.1-.2.1-.4.2a.9.9,0,0,1-.5.1c-.1-.2-.4-.3-.6-.5Z" transform="translate(-12.83 -25.83)"/><path class="a" d="M80.1,46.6v7.7a8.28,8.28,0,0,1-1.5,1.1,8.65,8.65,0,0,1-1.7.7,10.62,10.62,0,0,1-1.9.4,12.1,12.1,0,0,1-1.9.1,9.37,9.37,0,0,1-3.7-.7,12.09,12.09,0,0,1-3-2,8.32,8.32,0,0,1-2-3,7.89,7.89,0,0,1-.7-3.7A9.12,9.12,0,0,1,65,42.4a9.54,9.54,0,0,1,5.7-4.3,10.68,10.68,0,0,1,2.5-.3,12.31,12.31,0,0,1,2,.2,10.66,10.66,0,0,1,1.9.7,17.39,17.39,0,0,1,1.8,1.1,10.7,10.7,0,0,1,1.6,1.4l-.9.8a5.55,5.55,0,0,1-.8.6,3,3,0,0,1-1,.2,2,2,0,0,1-1.3-.4,8,8,0,0,0-1.6-.8,5.66,5.66,0,0,0-1.8-.3,6.87,6.87,0,0,0-2.4.5A6.44,6.44,0,0,0,67.4,45a5.93,5.93,0,0,0-.5,2.3,6.87,6.87,0,0,0,.5,2.4,6.67,6.67,0,0,0,2.3,2.7,5.89,5.89,0,0,0,3.4,1,4.87,4.87,0,0,0,1.2-.1c.4-.1.8-.1,1.1-.2a3.7,3.7,0,0,0,1.1-.5V50H75.4a2.92,2.92,0,0,1-.9-.2,1.58,1.58,0,0,1-.7-.7,2.2,2.2,0,0,1-.2-1.4v-1Z" transform="translate(-12.83 -25.83)"/><path class="a" d="M56,50.2A21.67,21.67,0,1,0,31.8,69,21.63,21.63,0,0,0,56,50.2Z" transform="translate(-12.83 -25.83)"/><path class="b" d="M35.3,47.2v2.1h4.5v3.5H34.9a4.77,4.77,0,0,1-2-.4,4.89,4.89,0,0,1-2.2-1.8,4.58,4.58,0,0,1-.8-3.4,4.7,4.7,0,0,1,1.6-3.1,4.82,4.82,0,0,1,3.2-1.3A5.46,5.46,0,0,1,38,43.9h9a3,3,0,0,0-.4-1,12.74,12.74,0,0,0-4.2-5.3,12.22,12.22,0,0,0-6.3-2.4,12.38,12.38,0,0,0-6.6,1.2,12.79,12.79,0,0,0-5.1,4.4,12.19,12.19,0,0,0-2.1,6.4,12.58,12.58,0,0,0,1.5,6.6,13.53,13.53,0,0,0,4.6,4.9,12.49,12.49,0,0,0,6.5,1.8H47.5V47.2Zm4.6,11H34.8a10.67,10.67,0,0,1-5.2-1.4A9.91,9.91,0,0,1,25.8,53a11.62,11.62,0,0,1-1.5-5.2,10.56,10.56,0,0,1,1.3-5.2,11.23,11.23,0,0,1,3.6-3.9,10.22,10.22,0,0,1,5.1-1.6,10.53,10.53,0,0,1,9.2,4.6H38.6a6.8,6.8,0,0,0-3.1-1.1,6.91,6.91,0,0,0-3.2.4,7.12,7.12,0,0,0-2.7,1.8A6.6,6.6,0,0,0,28,45.6a7.39,7.39,0,0,0-.2,3.3,6.72,6.72,0,0,0,1.3,3,7.3,7.3,0,0,0,5.7,2.9h4.9v3.4Zm5.6.1H42V54.9h3.5Zm0-5.6H42V49.2h3.5Z" transform="translate(-12.83 -25.83)"/><path class="c" d="M34.7,46.5v2.1h4.5V52H34.3a5.33,5.33,0,0,1-2.4-.6,5.48,5.48,0,0,1-1.8-1.6,4.89,4.89,0,0,1-.8-2.3,4,4,0,0,1,.4-2.4,4.89,4.89,0,0,1,1.8-2.2,4,4,0,0,1,2.3-.8,4.88,4.88,0,0,1,2.4.4,4.73,4.73,0,0,1,1.2.7h8.9a3,3,0,0,0-.4-1,12.73,12.73,0,0,0-10.5-7.7,12.38,12.38,0,0,0-6.6,1.2,12.79,12.79,0,0,0-5.1,4.4,12.19,12.19,0,0,0-2.1,6.4,12.8,12.8,0,0,0,1.5,6.6A13.53,13.53,0,0,0,27.7,58a12.24,12.24,0,0,0,6.5,1.8H46.8V46.5Zm4.5,11.1H34.1a10.67,10.67,0,0,1-5.2-1.4,9.91,9.91,0,0,1-3.8-3.8,11.62,11.62,0,0,1-1.5-5.2A10.56,10.56,0,0,1,24.9,42a11.23,11.23,0,0,1,3.6-3.9,10.22,10.22,0,0,1,5.1-1.6,10.53,10.53,0,0,1,9.2,4.6H37.9A6.8,6.8,0,0,0,34.8,40a6.91,6.91,0,0,0-3.2.4,7.12,7.12,0,0,0-2.7,1.8A18.28,18.28,0,0,0,27.5,45a6.13,6.13,0,0,0-.2,3.3,6.72,6.72,0,0,0,1.3,3,7.21,7.21,0,0,0,2.5,2.1,7.11,7.11,0,0,0,3.2.7h4.9Zm5.7,0H41.4V54.1h3.5Zm0-5.5H41.4V48.6h3.5Z" transform="translate(-12.83 -25.83)"/><path class="d" d="M39.2,54.1h2.1v1H39.2Z" transform="translate(-12.83 -25.83)"/><path class="d" d="M37.6,48.6h1.7v1h2.1v-1H37.6Z" transform="translate(-12.83 -25.83)"/></svg>