<svg xmlns="http://www.w3.org/2000/svg" xmlns:xlink="http://www.w3.org/1999/xlink" viewBox="0 0 232.83 28"><defs><style>.a,.b,.c,.d{fill:none;}.b,.c,.d{stroke-miterlimit:10;stroke-width:6px;}.b{stroke:url(#a);}.c{stroke:url(#b);}.d{stroke:url(#c);}.e{clip-path:url(#d);}</style><linearGradient id="a" x1="48" y1="28.06" x2="74.67" y2="28.06" gradientTransform="matrix(1, 0, 0, -1, 0, 66)" gradientUnits="userSpaceOnUse"><stop offset="0" stop-color="#003fff"/><stop offset="0.69" stop-color="#690aff"/></linearGradient><linearGradient id="b" x1="21.33" y1="39.94" x2="48.02" y2="39.94" gradientTransform="matrix(1, 0, 0, -1, 0, 66)" gradientUnits="userSpaceOnUse"><stop offset="0.29" stop-color="#e843a1"/><stop offset="1" stop-color="#003fff"/></linearGradient><linearGradient id="c" x1="21.33" y1="34" x2="74.69" y2="34" gradientTransform="matrix(1, 0, 0, -1, 0, 66)" gradientUnits="userSpaceOnUse"><stop offset="0.16" stop-color="#e843a1"/><stop offset="0.84" stop-color="#690aff"/></linearGradient><clipPath id="d" transform="translate(-18.33 -18)"><rect class="a" x="96" y="18" width="155.17" height="28"/></clipPath></defs><title>lineicons</title><path class="b" d="M48,32c3.93,5.33,7.93,10.67,15.8,10.67A10.78,10.78,0,0,0,74.67,32" transform="translate(-18.33 -18)"/><path class="c" d="M21.33,32A10.78,10.78,0,0,1,32.2,21.33c7.87,0,11.87,5.33,15.8,10.67" transform="translate(-18.33 -18)"/><path class="d" d="M74.67,32A10.78,10.78,0,0,0,63.8,21.33C55.93,21.33,51.93,26.67,48,32S40.07,42.67,32.2,42.67A10.78,10.78,0,0,1,21.33,32" transform="translate(-18.33 -18)"/><g class="e"><path d="M96,45.94V18h3.66V42.29h11.44v3.64Zm18.78-22.11V19.94h3.66v3.89Zm0,22.11V25.77h3.66V45.94Zm49.48-22.11V19.94h3.66v3.89Zm0,22.11V25.77h3.66V45.94ZM139,33.12a14.15,14.15,0,0,0-.57-2.49,9.3,9.3,0,0,0-1.26-2.37A5.86,5.86,0,0,0,135,26.5a7.76,7.76,0,0,0-3.32-.67,7.28,7.28,0,0,0-5.84,2.43V25.84h-3.66V46h3.66V36h.06a9.45,9.45,0,0,1,.4-3,4.62,4.62,0,0,1,1-2,4.56,4.56,0,0,1,1.54-1.09,4.78,4.78,0,0,1,1.89-.36,4.27,4.27,0,0,1,2.46.67,5.18,5.18,0,0,1,1.49,1.7,7.65,7.65,0,0,1,.69,2.31,17.92,17.92,0,0,1,.17,2.43V46h3.72V35.25C139.17,34.64,139.11,33.91,139,33.12Zm92.47,0a14.14,14.14,0,0,0-.57-2.49,9.3,9.3,0,0,0-1.26-2.37,5.85,5.85,0,0,0-2.17-1.76,7.75,7.75,0,0,0-9.15,1.76V25.84h-3.66V46h3.66V36h.06a9.45,9.45,0,0,1,.4-3,4.62,4.62,0,0,1,1-2,4.57,4.57,0,0,1,1.54-1.09,4.78,4.78,0,0,1,1.89-.36,4.27,4.27,0,0,1,2.46.67,4.45,4.45,0,0,1,1.43,1.7,7.65,7.65,0,0,1,.69,2.31,17.92,17.92,0,0,1,.17,2.43V46h3.72V35.25C231.64,34.64,231.59,33.91,231.47,33.12Zm-72.38,3.77h1.83a13.87,13.87,0,0,0-.8-6,8.26,8.26,0,0,0-3-3.83,8.72,8.72,0,0,0-4.92-1.34A9.15,9.15,0,0,0,147.31,27,8.73,8.73,0,0,0,144,30.63,11.49,11.49,0,0,0,142.9,36a11.09,11.09,0,0,0,1.2,5.22,8.17,8.17,0,0,0,3.32,3.46,9.55,9.55,0,0,0,5,1.28,9.72,9.72,0,0,0,5-1.4,8.54,8.54,0,0,0,3.38-3.95l-3.6-1.15a5.2,5.2,0,0,1-1.95,2.25,5.36,5.36,0,0,1-3,.79,4.76,4.76,0,0,1-4-1.7A7,7,0,0,1,147,37h12.13Zm-11-6.07a5,5,0,0,1,4.12-1.76,4.45,4.45,0,0,1,3.72,1.58,6.49,6.49,0,0,1,1.14,3.16H146.85A7.29,7.29,0,0,1,148.11,30.82Zm32.3,15.12a8.79,8.79,0,0,1-5-1.34A8.46,8.46,0,0,1,172.28,41a11.69,11.69,0,0,1-1.09-5.16,11.79,11.79,0,0,1,1.14-5.22A8.47,8.47,0,0,1,175.49,27a9.93,9.93,0,0,1,10.24.3,7.27,7.27,0,0,1,2.92,4.25l-3.66,1a4.88,4.88,0,0,0-1.77-2.49,4.64,4.64,0,0,0-2.86-.91,5.12,5.12,0,0,0-3,.85,4.47,4.47,0,0,0-1.72,2.37,9,9,0,0,0-.57,3.4,7.85,7.85,0,0,0,1.37,4.8,4.51,4.51,0,0,0,3.95,1.82,4.64,4.64,0,0,0,2.86-.85,4.7,4.7,0,0,0,1.66-2.37l3.72.91a8.39,8.39,0,0,1-3.09,4.31A8.82,8.82,0,0,1,180.41,45.94Zm21.24,0a9.21,9.21,0,0,1-4.92-1.28,8.6,8.6,0,0,1-3.2-3.58,12.63,12.63,0,0,1,0-10.51A8.56,8.56,0,0,1,196.78,27a9.15,9.15,0,0,1,13,3.58,12.64,12.64,0,0,1,0,10.51,8.71,8.71,0,0,1-3.26,3.58A9.92,9.92,0,0,1,201.65,45.94Zm0-3.46a4.72,4.72,0,0,0,4.06-1.82,7.73,7.73,0,0,0,1.37-4.8,7.73,7.73,0,0,0-1.37-4.8,4.72,4.72,0,0,0-4.06-1.82,5.19,5.19,0,0,0-3,.85,5,5,0,0,0-1.77,2.31,9,9,0,0,0-.57,3.4,7.73,7.73,0,0,0,1.37,4.8A4.51,4.51,0,0,0,201.65,42.48Zm41.91,3.46a9.71,9.71,0,0,1-5.67-1.52,6.67,6.67,0,0,1-2.69-4.31L239,39.5a4.15,4.15,0,0,0,1.6,2.37,5.71,5.71,0,0,0,3.15.85,4.36,4.36,0,0,0,2.69-.73,2.3,2.3,0,0,0,1-1.94,1.82,1.82,0,0,0-.34-1.15,2.89,2.89,0,0,0-1.43-.85c-.74-.24-1.83-.61-3.32-1a20.94,20.94,0,0,1-3.89-1.4,5.23,5.23,0,0,1-2.06-1.7,4.54,4.54,0,0,1-.63-2.37,5,5,0,0,1,.91-3,6.35,6.35,0,0,1,2.57-2,9.55,9.55,0,0,1,3.89-.73,11.19,11.19,0,0,1,3.89.67,6.81,6.81,0,0,1,2.75,1.94,5.51,5.51,0,0,1,1.26,3l-3.78.67A3.26,3.26,0,0,0,246,29.84a5.79,5.79,0,0,0-5.49-.3,1.91,1.91,0,0,0-1,1.7,1.51,1.51,0,0,0,.4,1.09,3.75,3.75,0,0,0,1.54.85c.74.24,1.89.61,3.38,1a15.24,15.24,0,0,1,3.78,1.4,5,5,0,0,1,2,1.76,4.82,4.82,0,0,1,.63,2.49,5.27,5.27,0,0,1-2.06,4.43A8,8,0,0,1,243.56,45.94Z" transform="translate(-18.33 -18)"/></g></svg>