<svg xmlns="http://www.w3.org/2000/svg" viewBox="0 0 88.44 17.8"><defs><style>.a{fill:#fff;}.b{fill:#f20487;}</style></defs><title>logo</title><path class="a" d="M29.93,7a.17.17,0,0,1-.12,0H25.26s-.07,0-.07.06V9a.06.06,0,0,0,.07.06h3a.17.17,0,0,1,.12,0,.14.14,0,0,1,0,.11v1.25a.15.15,0,0,1,0,.11.17.17,0,0,1-.12,0h-3s-.07,0-.07.06v2.09a.06.06,0,0,0,.07.06H29.8a.17.17,0,0,1,.12,0,.15.15,0,0,1,0,.11v1.47a.15.15,0,0,1,0,.11.17.17,0,0,1-.12,0H23.4a.16.16,0,0,1-.12,0,.15.15,0,0,1,0-.11V5.61a.15.15,0,0,1,0-.11.17.17,0,0,1,.12,0h6.4a.17.17,0,0,1,.12,0,.15.15,0,0,1,0,.11V6.87A.14.14,0,0,1,29.93,7Z"/><path class="a" d="M32.91,14.35,30.7,8a.13.13,0,0,1,0-.06q0-.12.15-.12h1.77a.18.18,0,0,1,.19.13L34,11.89h0L35.09,8a.18.18,0,0,1,.19-.13h1.79a.16.16,0,0,1,.12,0,.13.13,0,0,1,0,.14l-2.1,6.36a.17.17,0,0,1-.18.13H33.09A.17.17,0,0,1,32.91,14.35Z"/><path class="a" d="M44.12,11.59a.16.16,0,0,1-.16.16H39.62c-.06,0-.07,0-.06.06a2.18,2.18,0,0,0,.15.52,1.48,1.48,0,0,0,1.47.72,1.71,1.71,0,0,0,1.44-.7.15.15,0,0,1,.12-.08.16.16,0,0,1,.1.05l1,.92a.18.18,0,0,1,.07.12.26.26,0,0,1-.06.1,3,3,0,0,1-1.18.82,4.19,4.19,0,0,1-1.58.29,3.8,3.8,0,0,1-2-.5,2.84,2.84,0,0,1-1.18-1.41A4.16,4.16,0,0,1,37.62,11a3.49,3.49,0,0,1,.21-1.25,2.85,2.85,0,0,1,1.12-1.46,3.28,3.28,0,0,1,1.89-.54,3,3,0,0,1,3.24,2.74h0A5.19,5.19,0,0,1,44.12,11.59Zm-4.43-1.51a2.83,2.83,0,0,0-.1.41.06.06,0,0,0,.07.06h2.4c.06,0,.07,0,.06-.06l-.07-.36a1.12,1.12,0,0,0-.44-.6,1.33,1.33,0,0,0-.77-.21A1.11,1.11,0,0,0,39.69,10.08Z"/><path class="a" d="M50.73,8.35a2.24,2.24,0,0,1,.68,1.72v4.28a.15.15,0,0,1,0,.11.17.17,0,0,1-.12,0H49.62a.16.16,0,0,1-.12,0,.14.14,0,0,1,0-.11V10.48a1.16,1.16,0,0,0-.31-.84,1.21,1.21,0,0,0-1.65,0,1.16,1.16,0,0,0-.31.84v3.87a.15.15,0,0,1,0,.11.16.16,0,0,1-.12,0H45.4a.16.16,0,0,1-.12,0,.14.14,0,0,1,0-.11V8a.14.14,0,0,1,0-.11.17.17,0,0,1,.12,0H47a.17.17,0,0,1,.12,0,.15.15,0,0,1,0,.11v.45a.05.05,0,0,0,0,.05h0a2,2,0,0,1,1.69-.75A2.52,2.52,0,0,1,50.73,8.35Z"/><path class="a" d="M56.75,9.27a.17.17,0,0,1-.13.08H55.3s-.07,0-.07.06v2.74a.92.92,0,0,0,.19.63A.77.77,0,0,0,56,13h.46a.17.17,0,0,1,.12,0,.15.15,0,0,1,0,.11v1.25c0,.1-.06.15-.17.17H55.6a3.29,3.29,0,0,1-1.72-.36,1.48,1.48,0,0,1-.58-1.34V9.35a.06.06,0,0,0-.07-.06h-.79a.16.16,0,0,1-.12,0,.14.14,0,0,1,0-.11V8a.14.14,0,0,1,0-.11.17.17,0,0,1,.12,0h.79s.07,0,.07-.06V6.26a.15.15,0,0,1,0-.11.17.17,0,0,1,.12,0H55a.17.17,0,0,1,.12,0,.15.15,0,0,1,0,.11V7.8a.06.06,0,0,0,.07.06h1.46a.17.17,0,0,1,.12,0,.15.15,0,0,1,0,.11V9.12A.15.15,0,0,1,56.75,9.27Z"/><path class="a" d="M59.53,14.2a3,3,0,0,1-1.72-2.78V8.53a3.08,3.08,0,0,1,.45-1.67,3,3,0,0,1,1.27-1.11,4.69,4.69,0,0,1,3.75,0,3.1,3.1,0,0,1,1.26,1A2.58,2.58,0,0,1,65,8.28v.07a.14.14,0,0,1,0,.11.16.16,0,0,1-.12,0H63.2a.16.16,0,0,1-.12,0,.14.14,0,0,1,0-.11h0a1.31,1.31,0,0,0-.46-1,2,2,0,0,0-2.4,0,1.5,1.5,0,0,0-.45,1.13v3a1.44,1.44,0,0,0,.48,1.13,1.78,1.78,0,0,0,1.23.43,1.75,1.75,0,0,0,1.14-.36,1.21,1.21,0,0,0,.43-1V11.1A.06.06,0,0,0,63,11H61.44a.16.16,0,0,1-.12,0,.14.14,0,0,1,0-.11V9.71a.14.14,0,0,1,0-.11.17.17,0,0,1,.12,0h3.38a.17.17,0,0,1,.12,0,.14.14,0,0,1,0,.11v1.71a3.2,3.2,0,0,1-.44,1.71,2.86,2.86,0,0,1-1.25,1.1,4.37,4.37,0,0,1-1.88.38A4.23,4.23,0,0,1,59.53,14.2Z"/><path class="a" d="M70.62,8a.16.16,0,0,1,.08.19l-.29,1.47q0,.16-.19.09a1.66,1.66,0,0,0-.49-.06h-.3a1.41,1.41,0,0,0-.85.34,1,1,0,0,0-.35.81v3.56a.15.15,0,0,1,0,.11.16.16,0,0,1-.12,0H66.43a.16.16,0,0,1-.12,0,.14.14,0,0,1,0-.11V8a.14.14,0,0,1,0-.11.17.17,0,0,1,.12,0h1.62a.17.17,0,0,1,.12,0,.15.15,0,0,1,0,.11V8.5a0,0,0,0,0,0,.05h0a1.79,1.79,0,0,1,1.52-.77A1.49,1.49,0,0,1,70.62,8Z"/><path class="a" d="M71.74,6.82a1,1,0,0,1-.06-1.41l.06-.06a1.24,1.24,0,0,1,1.58,0,1,1,0,0,1,.06,1.41l-.06.06a1.2,1.2,0,0,1-1.57,0Zm-.12,7.63a.15.15,0,0,1,0-.11V8a.15.15,0,0,1,0-.11.17.17,0,0,1,.12,0h1.58a.17.17,0,0,1,.12,0,.14.14,0,0,1,0,.11v6.35a.14.14,0,0,1,0,.11.16.16,0,0,1-.12,0h-1.7Z"/><path class="a" d="M79.38,5.5a.16.16,0,0,1,.12,0h1.62a.16.16,0,0,1,.12,0,.14.14,0,0,1,0,.11v8.74a.14.14,0,0,1,0,.11.16.16,0,0,1-.12,0H79.49a.16.16,0,0,1-.12,0,.14.14,0,0,1,0-.11v-.43h0a.06.06,0,0,0-.06,0,2,2,0,0,1-1.59.71,2.71,2.71,0,0,1-2.67-1.89,4.73,4.73,0,0,1-.23-1.56,4.67,4.67,0,0,1,.25-1.6,2.79,2.79,0,0,1,1-1.31,2.87,2.87,0,0,1,1.7-.48,1.93,1.93,0,0,1,1.55.65h.06a0,0,0,0,0,0-.05V5.61A.14.14,0,0,1,79.38,5.5Zm-.06,5.68A2.57,2.57,0,0,0,79,9.82a1,1,0,0,0-.93-.5,1.1,1.1,0,0,0-1,.5,2.39,2.39,0,0,0-.35,1.37A2.6,2.6,0,0,0,77,12.48,1.13,1.13,0,0,0,78,13a1.09,1.09,0,0,0,1-.56A2.6,2.6,0,0,0,79.32,11.18Z"/><path class="a" d="M83.87,14.35a2.48,2.48,0,0,1-1.07-.68,1.48,1.48,0,0,1-.38-1v-.13a.14.14,0,0,1,0-.11.17.17,0,0,1,.2-.08h1.5a.17.17,0,0,1,.12,0,.14.14,0,0,1,0,.11h0a.57.57,0,0,0,.34.48,1.66,1.66,0,0,0,.85.2,1.47,1.47,0,0,0,.76-.17.5.5,0,0,0,.29-.43.37.37,0,0,0-.25-.35,4.42,4.42,0,0,0-.82-.25,8.72,8.72,0,0,1-1-.3,4.51,4.51,0,0,1-1.41-.7,1.42,1.42,0,0,1-.53-1.19,1.76,1.76,0,0,1,.8-1.52,3.59,3.59,0,0,1,2.11-.56,4.19,4.19,0,0,1,1.55.26,2.37,2.37,0,0,1,1,.74,1.73,1.73,0,0,1,.37,1.08.15.15,0,0,1,0,.11.17.17,0,0,1-.12,0H86.71a.16.16,0,0,1-.12,0,.14.14,0,0,1,0-.11.56.56,0,0,0-.31-.48,1.54,1.54,0,0,0-.82-.19,1.59,1.59,0,0,0-.84.27.47.47,0,0,0-.29.43.41.41,0,0,0,.28.39,5.09,5.09,0,0,0,.95.27l.35.08.41.11a4.64,4.64,0,0,1,1.55.7,1.46,1.46,0,0,1,.57,1.24,1.69,1.69,0,0,1-.81,1.49,3.91,3.91,0,0,1-2.18.54A4.86,4.86,0,0,1,83.87,14.35Z"/><path class="b" d="M19.29,10.3A7.5,7.5,0,0,1,4.7,12.75a1.67,1.67,0,0,1-.8.2,1.71,1.71,0,1,1,0-3.42h0a2,2,0,0,1,.42,0,7.75,7.75,0,0,1,.19-1.09H4.29A2.32,2.32,0,1,1,6.35,5.13a8,8,0,0,1,1-.9,1.72,1.72,0,1,1,2.71-1.44V3a7,7,0,0,1,1.74-.21A7.51,7.51,0,0,1,19.29,10.3Z"/><circle class="b" cx="0.98" cy="8.92" r="0.98"/><circle class="b" cx="0.98" cy="4.52" r="0.74"/><circle class="b" cx="4.16" cy="1.45" r="1.45"/><path class="a" d="M13.79,12.35a4.16,4.16,0,0,1,.76.79h0a.22.22,0,0,1,.07.21.19.19,0,0,1-.28.15.21.21,0,0,1-.15-.1h0a4.16,4.16,0,0,0-.68-.7A2.37,2.37,0,0,0,12,12.1a1.25,1.25,0,0,0-.49.1,2,2,0,0,0-.43.26,5.41,5.41,0,0,0-.43.35l-.43.36a2.56,2.56,0,0,1-.49.29,1.51,1.51,0,0,1-.58.12,1.72,1.72,0,0,1-.57,0H8.56A.71.71,0,0,1,8.2,13a1.12,1.12,0,0,1,.45-.86H8.7a.43.43,0,0,1,0-.22.44.44,0,0,1,.12-.2l2.63-3.2a2.3,2.3,0,0,0,1.23,1.23L9.51,12.35a.45.45,0,0,1-.23.12.49.49,0,0,1-.26,0H9a1.06,1.06,0,0,0-.18.21.45.45,0,0,0-.11.28.26.26,0,0,0,.12.19,1.07,1.07,0,0,0,.56,0,1.45,1.45,0,0,0,.48-.23l.47-.38h0l.47-.38a2.31,2.31,0,0,1,.53-.31,1.72,1.72,0,0,1,.64-.12A2.8,2.8,0,0,1,13.79,12.35Zm-.17-3a1.63,1.63,0,0,1-.69-.12,1.89,1.89,0,0,1-1-1,1.63,1.63,0,0,1-.12-.69A1.28,1.28,0,0,1,12,6.91a3.24,3.24,0,0,0,2.28,2.28A1.28,1.28,0,0,1,13.62,9.35Zm1.09-1.9a1.64,1.64,0,0,1,.12.69,1.28,1.28,0,0,1-.19.63A2.84,2.84,0,0,1,13.14,8a2.72,2.72,0,0,1-.52-.64,2.81,2.81,0,0,1-.27-.81A1.28,1.28,0,0,1,13,6.35a1.64,1.64,0,0,1,.69.12,1.89,1.89,0,0,1,1,1Z"/></svg>