<svg xmlns="http://www.w3.org/2000/svg" viewBox="0 0 143.88 23.36"><defs><style>.a{fill:#262d3f;}.b,.c{fill:#2f80ed;}.c{stroke:#2f80ed;stroke-width:0.5px;}</style></defs><title>sdfs</title><path class="a" d="M30.34,20.58h2.91V15.26h3.08C40.05,15.26,42,13.07,42,10s-2-5.22-5.67-5.22h-6Zm2.91-7.67V7.21h2.67c2.18,0,3.15,1.15,3.15,2.83s-1,2.87-3.13,2.87Zm14-8.09H44.45V20.58H47.3Zm6.4,16A3.74,3.74,0,0,0,57.24,19h.09v1.62h2.73V12.67c0-3.12-2.6-4.06-4.9-4.06-2.54,0-4.49,1.11-5.11,3.26l2.66.37a2.41,2.41,0,0,1,2.47-1.5c1.32,0,2,.66,2,1.82v0c0,.8-.86.84-3,1.06-2.34.25-4.58.93-4.58,3.59C49.66,19.59,51.39,20.82,53.69,20.82Zm.74-2c-1.19,0-2-.53-2-1.55s1-1.52,2.22-1.69A8.81,8.81,0,0,0,57.23,15v1.39A2.55,2.55,0,0,1,54.43,18.78Zm8.49,1.81h2.84V8.77H62.92Zm1.43-13.5A1.58,1.58,0,0,0,66,5.58a1.65,1.65,0,0,0-3.29,0A1.58,1.58,0,0,0,64.35,7.09Zm7.18,6.57A2.45,2.45,0,0,1,74.09,11a2.24,2.24,0,0,1,2.35,2.52v7.09h2.84V13.06c0-2.83-1.64-4.45-4.13-4.45a3.63,3.63,0,0,0-3.6,2.16h-.14v-2H68.69V20.58h2.84Zm11.34,6.92,1.72-4.75h6.76l1.72,4.75h1.54L88.76,4.83H87.18L81.33,20.58Zm2.19-6L87.92,6.7H88l2.85,7.85Zm16.36,6.29a3.87,3.87,0,0,0,3.71-2.44h.17v2.19h1.37V4.83h-1.41V11h-.13a3.81,3.81,0,0,0-3.68-2.42c-3,0-5,2.46-5,6.1S98.46,20.83,101.42,20.83Zm.17-1.25c-2.4,0-3.72-2.14-3.72-4.89s1.3-4.83,3.72-4.83,3.69,2,3.69,4.83S103.93,19.58,101.58,19.58Zm9.06,1H112V13A2.94,2.94,0,0,1,115,9.87a2.46,2.46,0,0,1,2.61,2.68v8H119V12.8a2.72,2.72,0,0,1,2.88-2.94,2.49,2.49,0,0,1,2.65,2.8v7.92h1.4V12.67c0-2.65-1.39-4.05-3.63-4.05a3.63,3.63,0,0,0-3.57,2.15h-.1a3.59,3.59,0,0,0-6.5-.18H112V8.77h-1.36Zm19,0h1.41V8.77h-1.41Zm.71-13.85a1,1,0,0,0,1.05-1,1.05,1.05,0,0,0-2.1,0A1,1,0,0,0,130.36,6.73Zm5.79,6.46a3.13,3.13,0,0,1,3.28-3.33,2.89,2.89,0,0,1,3,3.15v7.57h1.4V12.93c0-2.8-1.66-4.32-4.09-4.32a3.66,3.66,0,0,0-3.55,2h-.13V8.77h-1.36V20.58h1.4Z" transform="translate(0 -1.08)"/><path class="b" d="M26.16,11.26,21,2.59A3,3,0,0,0,18.4,1.08H8.14A3,3,0,0,0,5.51,2.59L.38,11.26a3.14,3.14,0,0,0,0,3l5.13,8.67a3,3,0,0,0,2.63,1.51H18.4A3,3,0,0,0,21,22.94l5.13-8.67A3.15,3.15,0,0,0,26.16,11.26Zm-2,1.88L19,21.81a.74.74,0,0,1-.71.38H8.14a.81.81,0,0,1-.71-.38L2.31,13.14a.91.91,0,0,1,0-.82L7.44,3.66a.74.74,0,0,1,.71-.38H18.4a.81.81,0,0,1,.71.38l5.13,8.67A.75.75,0,0,1,24.17,13.14Z" transform="translate(0 -1.08)"/><path class="c" d="M17.94,7.31H15.88a3.07,3.07,0,0,0-3.09,3v2.19H10.56a3.07,3.07,0,0,0-3.09,3v2a1.61,1.61,0,0,0,1.62,1.59h2a3.07,3.07,0,0,0,3.09-3V13.94h2.24a3.07,3.07,0,0,0,3.09-3v-2A1.6,1.6,0,0,0,17.94,7.31Zm-5.15,8.8a1.63,1.63,0,0,1-1.65,1.61h-2a.18.18,0,0,1-.18-.17v-2a1.63,1.63,0,0,1,1.65-1.61h2.23Zm5.33-5.22a1.64,1.64,0,0,1-1.65,1.62H14.23V10.32A1.63,1.63,0,0,1,15.88,8.7h2.06a.18.18,0,0,1,.18.18Z" transform="translate(0 -1.08)"/></svg>