<svg width="150" height="40" viewBox="0 0 150 40" fill="none" xmlns="http://www.w3.org/2000/svg">
<path d="M138.071 24.787L149.927 10.4891H144.107L133.477 23.3059V23.2238L128.66 29.064L127.612 30.3347C127.582 30.3853 127.553 30.4373 127.522 30.4879L125.716 32.6652C125.381 32.9693 125.027 33.2518 124.654 33.5077C123.07 34.593 121.176 35.2238 119.117 35.2244V35.2988C117.747 35.2964 116.453 35.0159 115.273 34.5096C113.498 33.7471 111.981 32.4689 110.912 30.8626C109.844 29.2537 109.222 27.331 109.221 25.2399C109.221 23.844 109.498 22.5268 109.998 21.3251C110.749 19.5218 112.008 17.9817 113.591 16.8962C115.175 15.8115 117.069 15.181 119.129 15.1801C121.306 15.181 123.301 15.8857 124.937 17.0876L127.549 13.4276C125.188 11.6871 122.267 10.6582 119.129 10.6588C117.152 10.6588 115.258 11.0671 113.538 11.8059C110.958 12.9139 108.77 14.7601 107.221 17.0857C105.673 19.4099 104.767 22.2278 104.768 25.2399C104.768 25.2896 104.772 25.3402 104.772 25.3905H104.694C104.694 26.7849 104.417 28.103 103.916 29.3047C103.165 31.1067 101.907 32.6478 100.325 33.7327C98.7405 34.8174 96.846 35.4484 94.7868 35.4496C93.4118 35.4488 92.1147 35.168 90.9303 34.6593C89.1556 33.898 87.6383 32.6194 86.5686 31.0126C86.0687 30.2595 85.6669 29.4358 85.3809 28.5593C85.1966 28.4677 84.9976 28.3647 84.7869 28.2506C83.772 27.6988 82.5001 26.8936 81.457 25.8368C81.02 25.3929 80.6283 24.9544 80.2769 24.5301C80.3 24.813 80.3135 25.0997 80.3135 25.3905C80.3135 26.7849 80.0372 28.103 79.5359 29.3047C78.786 31.1067 77.5263 32.6478 75.9442 33.7327C74.3599 34.8174 72.4652 35.4484 70.4063 35.4496C69.0316 35.4488 67.7342 35.168 66.5498 34.6593C64.7746 33.898 63.2577 32.6194 62.1891 31.0126C61.1201 29.4043 60.4986 27.4804 60.4982 25.3905C60.4982 23.9953 60.7754 22.6771 61.2758 21.4749C62.0258 19.6727 63.2853 18.1326 64.8676 17.0471C66.452 15.9624 68.3458 15.331 70.4063 15.3306C71.7799 15.3306 73.0777 15.6124 74.262 16.1203C76.0373 16.8823 77.554 18.1605 78.623 19.767C78.6472 19.8036 78.6699 19.8405 78.6933 19.8776L78.7002 19.875L78.7005 19.8782L78.7072 19.8948C78.7077 19.8973 78.71 19.9016 78.7111 19.9052C78.7522 19.9693 78.7905 20.0362 78.8302 20.1007C78.9301 20.3288 79.1291 20.7612 79.4436 21.3253C79.4753 21.3817 79.5091 21.4411 79.5431 21.5006C79.5688 21.5632 79.5976 21.6243 79.6218 21.6873C79.9139 22.1706 80.286 22.7261 80.7456 23.3217C80.7707 23.3545 80.7938 23.3864 80.8194 23.4188C81.2212 23.9435 81.6936 24.4908 82.2346 25.0273C82.2379 25.0313 82.2411 25.0344 82.244 25.0374C82.2483 25.0419 82.2527 25.0453 82.2566 25.0498C82.3424 25.1349 82.429 25.2184 82.5188 25.3022C82.5539 25.3344 82.5884 25.3668 82.6237 25.3987C83.1904 25.9214 83.8261 26.4268 84.5465 26.8809C85.356 27.3916 86.2682 27.8351 87.2782 28.154C88.2885 28.4738 89.3964 28.6675 90.5804 28.6859H90.5818C90.684 28.6876 90.7839 28.6887 90.8834 28.6887C92.7916 28.6891 94.5026 28.3863 96.0049 27.8469C97.1324 27.4431 98.1393 26.9082 99.0229 26.2885C100.349 25.3573 101.395 24.2411 102.21 23.0973C103.025 21.9512 103.612 20.7767 104.04 19.6927C104.367 18.863 104.535 18.0387 104.535 17.2494C104.535 16.7952 104.48 16.3567 104.377 15.9481C104.198 15.2326 103.878 14.6214 103.522 14.1405C102.984 13.4158 102.382 12.9643 101.914 12.6713C101.441 12.3798 101.089 12.245 100.984 12.2065L100.976 12.232C99.0997 11.3215 96.9967 10.8095 94.7868 10.8099C92.8097 10.8095 90.9151 11.2172 89.1955 11.9563C87.5127 12.6797 85.998 13.7174 84.7165 14.9969V0.994861H80.2647V13.1913C80.5367 13.4557 80.8194 13.7425 81.1127 14.0556C82.2389 15.2577 82.9686 16.4193 83.609 17.4877C84.2506 18.5591 84.8046 19.53 85.5829 20.4162C85.7011 20.5519 85.8267 20.6854 85.9576 20.818C86.7226 19.2987 87.8612 17.9984 89.2485 17.0471C90.8315 15.9624 92.7266 15.331 94.7868 15.3306C96.5928 15.331 98.2699 15.8162 99.7266 16.668L99.7441 16.6367C99.8394 16.7123 99.9264 16.7998 99.9749 16.875C100.011 16.9281 100.034 16.974 100.051 17.0269C100.067 17.0797 100.082 17.1414 100.082 17.2494C100.082 17.3943 100.054 17.6345 99.9053 18.0135C99.6256 18.7235 99.2559 19.4725 98.7826 20.1837C98.4277 20.7171 98.0145 21.23 97.5381 21.6972C96.8203 22.3984 95.9639 23.0005 94.8894 23.442C93.8151 23.8826 92.5139 24.167 90.8834 24.1674C90.8069 24.1674 90.7309 24.167 90.6548 24.1659H90.6537C89.9802 24.1543 89.3737 24.0583 88.8103 23.8999C87.8279 23.6226 86.9743 23.1507 86.2244 22.5708C85.9624 22.3684 85.7149 22.1511 85.4808 21.9265C85.4808 21.9254 85.4812 21.9226 85.4827 21.9205C85.3702 21.8153 85.2625 21.7088 85.1573 21.6027C84.5417 20.9582 84.0387 20.2764 83.6697 19.6892C83.388 19.2423 83.0981 18.8699 82.9671 18.605C82.9018 18.4719 82.7716 18.2655 82.7716 18.2655C82.1055 17.1502 81.4131 16.0168 80.3067 14.8347C80.2922 14.819 80.2777 14.8061 80.2647 14.7903V14.7911C79.696 14.2464 79.0865 13.7463 78.4363 13.3006C76.1472 11.7294 73.3724 10.8087 70.4063 10.8099C68.4292 10.8095 66.5352 11.2172 64.8152 11.9563C62.2352 13.065 60.0469 14.911 58.4988 17.2363C56.951 19.5604 56.0442 22.3779 56.0451 25.3905C56.0442 27.397 56.4465 29.3208 57.1743 31.0659C58.2659 33.6858 60.084 35.907 62.375 37.4788C64.6642 39.0511 67.4391 39.9712 70.4063 39.9707C72.3826 39.9709 74.2775 39.5625 75.9968 38.8233C78.5768 37.715 80.7646 35.8693 82.3133 33.5439C82.4102 33.3971 82.5051 33.2494 82.5971 33.0988C83.6671 34.8395 85.0849 36.3324 86.7547 37.4788C89.0444 39.0511 91.8192 39.9712 94.7868 39.9707C96.7624 39.9709 98.6573 39.5625 100.377 38.8233C102.955 37.715 105.145 35.8693 106.692 33.5439C106.8 33.3828 106.904 33.219 107.004 33.0523C108.067 34.748 109.46 36.2049 111.099 37.3282C113.388 38.9 116.162 39.8201 119.129 39.8198C121.104 39.8201 123.001 39.412 124.719 38.673C126.327 37.9829 127.781 37.006 129.024 35.8054V39.876H133.477V30.3253L135.148 28.3117L144.29 39.876H150L138.071 24.787ZM133.477 0.994861H129.024V25.1698C129.024 25.8256 128.961 26.4636 128.842 27.082L133.477 21.4633V0.994861Z" fill="#190B5A"/>
<path d="M25.5142 11.3657V23.2137C25.5142 28.7331 22.1766 32.0668 17.1171 32.0668C12.0571 32.0668 8.50493 28.7331 8.50493 23.2137V0.970681H0V23.2137C0 33.324 6.67409 39.609 17.1171 39.609C27.5057 39.609 34.0192 33.324 34.0192 23.2137V0.970681H33.8698C29.3846 2.43279 26.0386 6.46798 25.5142 11.3657Z" fill="url(#paint0_linear)"/>
<path d="M41.2999 0.970673H41.1538V39.227H49.6589V11.3734C49.5786 7.12206 45.7877 2.43372 41.2999 0.970673" fill="url(#paint1_linear)"/>
<path d="M25.5142 11.3657V23.2137C25.5142 23.2208 25.5137 23.2279 25.5137 23.2358C25.5157 23.3536 25.522 23.4705 25.522 23.5892C25.522 31.5685 19.6029 38.1406 11.9807 39.0361C13.567 39.4113 15.2828 39.609 17.1171 39.609C27.5057 39.609 34.0192 33.324 34.0192 23.2137V0.970681H33.8698C29.3846 2.43279 26.0386 6.46798 25.5142 11.3657" fill="url(#paint2_linear)"/>
<path d="M8.50493 11.3849V0.970686H0V0.972374C4.52178 2.43711 7.91016 6.47136 8.50493 11.3849Z" fill="url(#paint3_linear)"/>
<path d="M41.1538 27.8902V39.227H49.5551C44.8701 37.5485 41.4535 33.1447 41.1538 27.8902Z" fill="url(#paint4_linear)"/>
<defs>
<linearGradient id="paint0_linear" x1="29.1059" y1="35.8744" x2="6.43529" y2="-2.80151" gradientUnits="userSpaceOnUse">
<stop stop-color="#C5259A"/>
<stop offset="0.169697" stop-color="#55369B"/>
<stop offset="0.575758" stop-color="#4779C6"/>
<stop offset="1" stop-color="#70D0E4"/>
</linearGradient>
<linearGradient id="paint1_linear" x1="45.4064" y1="0.970673" x2="45.4064" y2="39.2271" gradientUnits="userSpaceOnUse">
<stop stop-color="#7A2393"/>
<stop offset="0.472727" stop-color="#951E93"/>
<stop offset="1" stop-color="#EE197F"/>
</linearGradient>
<linearGradient id="paint2_linear" x1="22.9998" y1="0.970681" x2="22.9998" y2="39.6092" gradientUnits="userSpaceOnUse">
<stop stop-color="#7A2393"/>
<stop offset="0.472727" stop-color="#951E93"/>
<stop offset="0.890909" stop-color="#EE197F"/>
<stop offset="1" stop-color="#EE1A98"/>
</linearGradient>
<linearGradient id="paint3_linear" x1="3.21444" y1="7.51708" x2="8.56956" y2="0.814682" gradientUnits="userSpaceOnUse">
<stop stop-color="#423A9C"/>
<stop offset="0.327273" stop-color="#4779C6"/>
<stop offset="1" stop-color="#70D0E4"/>
</linearGradient>
<linearGradient id="paint4_linear" x1="45.6745" y1="33.1665" x2="40.4974" y2="39.3204" gradientUnits="userSpaceOnUse">
<stop stop-color="#3F2D92"/>
<stop offset="0.193939" stop-color="#951E93"/>
<stop offset="1" stop-color="#EE197F"/>
</linearGradient>
</defs>
</svg>
